<?xml version="1.0" encoding="utf-8"?>
<svg width="24" height="24" viewBox="0 0 24 24" xmlns="http://www.w3.org/2000/svg">
  <path d="M 19 7.001 C 19 10.866 15.866 14.001000000000001 12 14.001000000000001 C 8.134 14.001000000000001 5 10.866000000000001 5 7.001000000000001 C 5 3.1340000000000012 8.134 8.881784197001252e-16 12 8.881784197001252e-16 C 15.866 8.881784197001252e-16 19 3.134000000000001 19 7.001000000000001 L 19 7.001 Z" style="fill: rgb(240, 124, 0);"/>
  <path d="M 17.402 14.181000000000001 C 15.896 15.318000000000001 14.028 16.001 12 16.001 C 9.97 16.001 8.100999999999999 15.316 6.593 14.179000000000002 C 2.521 15.972000000000001 0 21.555000000000003 0 24 L 24 24 C 24 21.576999999999998 21.4 15.994 17.402 14.181 L 17.402 14.181000000000001 Z" style="fill: rgb(0, 69, 137);"/>
</svg>